PathFileType	4	(X/Y/Z)	C:/Users/opensim2020/Desktop/walking_exp_matlab/subject01_walking12_straight_02.trc	
DataRate	CameraRate	NumFrames	NumMarkers	Units	OrigDataRate	OrigDataStartFrame	OrigNumFrames	
100.00	100.00	4	44	mm	100.00	1308	122	
Frame#	Time	LFHD			RFHD			LBHD			RBHD			C7			T10			CLAV			STRN			RBAK			LSHO			LUPA			LELB			LFRM			LWRA			LWRB			LFIN			RSHO			RUPA			RELB			RFRM			RWRA			RWRB			RFIN			LASI			RASI			LPSI			RPSI			LTHI			LKNE			LTIB			LANK			LHEE			LTOE			RTHI			RKNE			RTIB			RANK			RHEE			RTOE			*39			*40			*41			*42			*43			
		X1	Y1	Z1	X2	Y2	Z2	X3	Y3	Z3	X4	Y4	Z4	X5	Y5	Z5	X6	Y6	Z6	X7	Y7	Z7	X8	Y8	Z8	X9	Y9	Z9	X10	Y10	Z10	X11	Y11	Z11	X12	Y12	Z12	X13	Y13	Z13	X14	Y14	Z14	X15	Y15	Z15	X16	Y16	Z16	X17	Y17	Z17	X18	Y18	Z18	X19	Y19	Z19	X20	Y20	Z20	X21	Y21	Z21	X22	Y22	Z22	X23	Y23	Z23	X24	Y24	Z24	X25	Y25	Z25	X26	Y26	Z26	X27	Y27	Z27	X28	Y28	Z28	X29	Y29	Z29	X30	Y30	Z30	X31	Y31	Z31	X32	Y32	Z32	X33	Y33	Z33	X34	Y34	Z34	X35	Y35	Z35	X36	Y36	Z36	X37	Y37	Z37	X38	Y38	Z38	X39	Y39	Z39	X40	Y40	Z40	X41	Y41	Z41	X42	Y42	Z42	X43	Y43	Z43	X44	Y44	Z44	

62	0.610	1492.48914	230.20343	1672.83826	1380.98914	209.97496	1675.26355	1479.17676	345.59869	1627.52563	1359.82153	327.04837	1628.62244	1438.60095	379.27856	1430.80383	1434.51563	407.71643	1135.74976	1445.94055	234.80681	1365.69189	1458.45081	187.12654	1213.59790	1362.69092	424.57904	1231.82922	1603.59595	304.36771	1396.93335	1693.59558	336.00555	1217.67163	1704.38293	336.64581	1062.72571	1736.14612	261.28305	975.64404	1730.74475	140.35580	906.07391	1746.65503	190.65132	877.04529	1767.31787	120.86246	835.23468	1290.22314	290.44458	1388.00964	1192.37793	352.44882	1187.38049	1195.49048	362.72986	1063.83313	1169.23108	353.89865	944.30078	1197.27429	300.22354	814.37561	1153.00049	338.09814	822.90454	1160.87769	317.91321	739.33228	1556.79968	236.40004	929.43134	1340.83044	217.35063	937.00232	1488.17444	417.11096	939.36884	1343.59314	403.36624	946.91217	1624.11804	255.25867	596.72528	1621.18970	264.31509	463.58246	1620.46582	416.23950	357.62479	1554.18079	585.86176	228.67474	1491.16199	616.38196	247.71097	1560.28369	567.17511	80.02919	1290.26050	237.93645	602.42102	1324.11694	211.14607	447.61871	1320.79236	258.47757	276.10529	1376.40442	282.19781	74.73229	1424.11743	333.47409	38.36171	1381.38513	142.29605	36.04366	1401.52979	223.32806	1709.18066	-3101.91577	1973.07593	1023.68219	-3140.65234	2012.45007	1022.01794						 
63	0.620	1492.35779	217.70869	1673.68555	1380.76355	197.57080	1676.04309	1479.14514	333.23248	1628.67468	1359.73706	314.76361	1629.73218	1438.34167	367.28201	1431.90845	1434.08118	395.97537	1136.84521	1445.96631	222.96393	1366.61096	1458.22620	175.33760	1214.55164	1362.27832	412.78928	1233.12793	1603.59058	292.75421	1397.95947	1692.68298	326.10931	1218.50769	1702.57996	328.66348	1063.67859	1734.01672	256.00772	974.38647	1728.65369	136.95789	901.35938	1744.08716	188.22076	873.61755	1764.21570	119.44195	829.53735	1290.12671	278.34525	1389.36108	1191.67310	338.52383	1188.41394	1194.39136	347.54654	1064.63013	1168.17224	335.95782	945.07568	1196.73792	279.83035	816.44183	1152.14185	317.37082	824.19910	1160.13879	295.16324	741.10040	1555.95654	223.95587	931.13715	1339.71106	206.23225	937.73004	1488.47852	405.08002	940.44415	1343.92029	392.35690	947.50934	1624.58948	235.19449	599.44415	1621.60291	241.26099	466.35825	1618.87683	392.45288	359.68256	1552.56812	560.72961	228.39592	1488.64600	591.95221	245.09421	1562.84241	536.65735	81.21149	1290.21558	230.93585	602.48883	1323.56970	207.21365	447.29614	1320.36279	256.23059	276.06516	1376.39990	281.80444	74.54784	1424.14111	333.26480	38.93027	1381.31238	142.04608	35.84247	1401.33594	210.74707	1710.03674	-3101.89771	1973.09412	1023.40198	-3140.71655	2012.53210	1021.98700						 
64	0.630	1492.34802	205.18086	1674.34265	1380.73743	185.16661	1676.69775	1479.14990	320.82443	1629.61328	1359.75110	302.48029	1630.70557	1438.21777	355.40198	1432.93359	1433.74341	384.36465	1137.78113	1446.00610	211.25435	1367.51831	1457.98352	163.63898	1215.38184	1361.80518	401.06219	1234.26428	1603.53149	281.22763	1398.87231	1691.90601	316.06412	1219.26794	1700.84351	320.62457	1064.58276	1731.96802	250.73581	973.25525	1726.42334	133.89442	896.66479	1741.54907	185.91197	870.29736	1761.44031	118.61471	823.92944	1290.28699	266.50360	1390.46484	1191.00293	324.94852	1189.32239	1192.89783	332.49991	1065.44458	1167.12573	318.04654	945.90179	1196.00171	258.77496	818.81506	1151.80701	295.84537	825.59448	1159.22803	271.81174	743.34418	1555.03247	211.58076	932.74829	1338.58289	195.28545	938.28223	1489.00854	393.16141	941.57471	1344.38989	381.36981	948.09692	1625.17798	215.47980	602.24731	1621.96814	218.70728	469.14026	1617.24768	368.85840	361.34851	1551.06128	535.15332	227.03233	1486.64563	567.52936	241.33542	1565.18762	504.13565	81.90144	1289.99353	224.26994	602.56982	1322.88928	203.27242	446.71310	1320.10400	253.72704	276.08212	1376.29883	281.02682	74.97924	1424.45178	332.71384	40.27483	1381.26831	141.79462	35.60666	1401.34814	198.24333	1710.73279	-3101.97534	1973.14453	1023.61884	-3140.73291	2012.47217	1021.97223						 
65	0.640	1492.41235	192.70168	1674.77197	1380.84644	172.73013	1677.23071	1479.33154	308.52341	1630.41211	1359.91992	290.21814	1631.56421	1438.17505	343.64825	1433.83984	1433.50708	372.77487	1138.62366	1446.04724	199.56029	1368.28418	1457.71423	152.02147	1216.04712	1361.27063	389.42487	1235.32764	1603.50269	269.75555	1399.69348	1691.23218	305.88187	1219.95776	1699.09192	312.54480	1065.47827	1729.85193	245.45428	972.09460	1724.12744	130.85918	891.98975	1739.06201	183.71956	867.14465	1758.40222	117.77087	818.35535	1290.21875	254.65182	1391.57471	1190.28711	311.34131	1190.21240	1191.85608	317.51514	1066.01282	1166.11682	300.05060	946.69843	1195.12354	237.09418	821.47870	1150.98792	275.10223	826.95197	1158.32849	248.25797	745.66089	1554.07349	199.39919	934.20105	1337.51318	184.47682	938.70142	1489.69409	381.29684	942.65240	1345.01758	370.51221	948.72980	1625.65479	196.33595	605.04803	1622.15710	196.80879	471.71539	1615.80627	345.66217	362.99252	1549.94373	509.04733	224.54588	1485.24927	542.73889	236.26634	1567.24573	470.27118	82.36559	1289.77625	217.99721	602.74664	1322.74878	199.21524	446.65421	1319.93433	251.34743	276.36646	1376.33264	280.66739	75.34697	1424.76306	332.67160	41.15414	1381.40771	141.55006	35.44051	1401.48413	185.69116	1711.27466	-3101.97998	1973.13574	1023.52069	-3140.67358	2012.53809	1022.09558						 
